<svg width="31" height="30" viewBox="0 0 31 30" fill="none" xmlns="http://www.w3.org/2000/svg">
<path d="M3 2.5H5.17501C6.52501 2.5 7.5875 3.6625 7.475 5L6.4375 17.45C6.2625 19.4875 7.87499 21.2375 9.92499 21.2375H23.2375C25.0375 21.2375 26.6125 19.7625 26.75 17.975L27.425 8.60001C27.575 6.52501 26 4.83749 23.9125 4.83749H7.77501" stroke="#FB640B" stroke-width="1.5" stroke-miterlimit="10" stroke-linecap="round" stroke-linejoin="round"/>
<path d="M20.8125 27.5C21.6754 27.5 22.375 26.8004 22.375 25.9375C22.375 25.0746 21.6754 24.375 20.8125 24.375C19.9496 24.375 19.25 25.0746 19.25 25.9375C19.25 26.8004 19.9496 27.5 20.8125 27.5Z" stroke="#FB640B" stroke-width="1.5" stroke-miterlimit="10" stroke-linecap="round" stroke-linejoin="round"/>
<path d="M10.8125 27.5C11.6754 27.5 12.375 26.8004 12.375 25.9375C12.375 25.0746 11.6754 24.375 10.8125 24.375C9.94956 24.375 9.25 25.0746 9.25 25.9375C9.25 26.8004 9.94956 27.5 10.8125 27.5Z" stroke="#FB640B" stroke-width="1.5" stroke-miterlimit="10" stroke-linecap="round" stroke-linejoin="round"/>
<path d="M11.75 10H26.75" stroke="#FB640B" stroke-width="1.5" stroke-miterlimit="10" stroke-linecap="round" stroke-linejoin="round"/>
</svg>
